<svg width="150" height="150" viewBox="0 0 150 150" fill="none" xmlns="http://www.w3.org/2000/svg">
<rect width="150" height="150" rx="57" fill="#F6FBF7"/>
<path d="M55 60H101" stroke="#2D3537" stroke-width="4" stroke-linecap="round" stroke-linejoin="round"/>
<path d="M55 72H87" stroke="#2D3537" stroke-width="4" stroke-linecap="round" stroke-linejoin="round"/>
<path d="M55 85H72" stroke="#2D3537" stroke-width="4" stroke-linecap="round" stroke-linejoin="round"/>
<path d="M121 72.6936C121 97.9371 100.621 118.387 75.5 118.387C71.2958 118.387 67.2277 117.815 63.3675 116.745C62.482 116.5 61.5412 116.58 60.7396 116.724C59.9014 116.874 58.9832 117.14 58.0444 117.45C57.0992 117.761 56.0665 118.139 54.9991 118.531L54.8504 118.586C53.8178 118.966 52.7421 119.361 51.6217 119.746C47.1622 121.279 42.3769 122.502 38.0601 121.796C36.1828 117.702 36.9174 114.157 37.9416 110.603C38.0335 110.284 38.1301 109.958 38.2283 109.627C38.6922 108.063 39.1901 106.384 39.3795 104.796C39.6226 102.758 39.4026 100.623 38.0063 98.5884C32.9567 91.2293 30 82.3115 30 72.6936C30 47.45 50.3787 27 75.5 27C100.621 27 121 47.45 121 72.6936Z" stroke="#2D3537" stroke-width="4"/>
</svg>
